<?xml version="1.0" encoding="UTF-8" standalone="no"?>
<!-- Created with Inkscape (http://www.inkscape.org/) -->

<svg
   width="15.292092mm"
   height="15.292089mm"
   viewBox="0 0 15.292092 15.292089"
   version="1.1"
   id="svg5283"
   inkscape:version="1.2.1 (9c6d41e4, 2022-07-14)"
   sodipodi:docname="favicon.svg"
   xmlns:inkscape="http://www.inkscape.org/namespaces/inkscape"
   xmlns:sodipodi="http://sodipodi.sourceforge.net/DTD/sodipodi-0.dtd"
   xmlns="http://www.w3.org/2000/svg"
   xmlns:svg="http://www.w3.org/2000/svg">
  <sodipodi:namedview
     id="namedview5285"
     pagecolor="#ffffff"
     bordercolor="#666666"
     borderopacity="1.0"
     inkscape:showpageshadow="2"
     inkscape:pageopacity="0.0"
     inkscape:pagecheckerboard="0"
     inkscape:deskcolor="#d1d1d1"
     inkscape:document-units="mm"
     showgrid="false"
     inkscape:zoom="6.7277216"
     inkscape:cx="9.5871981"
     inkscape:cy="21.626935"
     inkscape:window-width="3440"
     inkscape:window-height="1387"
     inkscape:window-x="0"
     inkscape:window-y="25"
     inkscape:window-maximized="1"
     inkscape:current-layer="layer1" />
  <defs
     id="defs5280">
    <clipPath
       id="48286a91d8">
      <path
         d="m 230,83.335938 h 19 V 95 h -19 z m 0,0"
         clip-rule="nonzero"
         id="path4" />
    </clipPath>
    <clipPath
       id="bd8b5dafff">
      <path
         d="m 224,83.335938 h 19 V 104 h -19 z m 0,0"
         clip-rule="nonzero"
         id="path7" />
    </clipPath>
    <clipPath
       id="3ad1aa71b7">
      <path
         d="m 246,98 h 11.96094 v 19 H 246 Z m 0,0"
         clip-rule="nonzero"
         id="path10" />
    </clipPath>
    <clipPath
       id="f0d2d03e30">
      <path
         d="m 237,93 h 20.96094 v 19 H 237 Z m 0,0"
         clip-rule="nonzero"
         id="path13" />
    </clipPath>
    <clipPath
       id="f6ab4849af">
      <path
         d="m 224,115 h 19 v 11.68359 h -19 z m 0,0"
         clip-rule="nonzero"
         id="path16" />
    </clipPath>
    <clipPath
       id="1d09309e0e">
      <path
         d="m 230,106 h 19 v 20.68359 h -19 z m 0,0"
         clip-rule="nonzero"
         id="path19" />
    </clipPath>
    <clipPath
       id="b2440ddaea">
      <path
         d="M 214.61328,93 H 226 v 19 h -11.38672 z m 0,0"
         clip-rule="nonzero"
         id="path22" />
    </clipPath>
    <clipPath
       id="35f92c2f90">
      <path
         d="M 214.61328,98 H 235 v 19 h -20.38672 z m 0,0"
         clip-rule="nonzero"
         id="path25" />
    </clipPath>
  </defs>
  <g
     inkscape:label="Layer 1"
     inkscape:groupmode="layer"
     id="layer1"
     transform="translate(-72.896327,-72.896328)">
    <g
       id="g3402"
       transform="matrix(0.3527778,0,0,0.3527778,23.995255,72.667292)">
      <path
         fill="#5ba0bd"
         d="m 160.85158,7.996893 1.60546,-1.605469 7.03125,7.039063 -1.60156,1.601562 -7.03515,-7.035156"
         fill-opacity="1"
         fill-rule="nonzero"
         id="path226" />
      <g
         clip-path="url(#48286a91d8)"
         id="g230"
         transform="translate(-75.996078,-82.686701)">
        <path
           fill="#457bc2"
           d="m 230.125,93.09375 8.02734,-8.03125 c 1.10938,-1.113281 2.58985,-1.726562 4.16407,-1.726562 1.57421,0 3.05468,0.613281 4.16406,1.726562 1.11328,1.113281 1.72656,2.589844 1.72656,4.164062 0,1.574219 -0.61328,3.054688 -1.72656,4.164063 l -1.30078,1.308594 -1.60547,-1.605469 1.30469,-1.308594 c 0.68359,-0.679687 1.05859,-1.589844 1.05859,-2.558594 0,-0.964843 -0.375,-1.875 -1.05859,-2.5625 -0.6875,-0.683593 -1.59375,-1.058593 -2.5625,-1.058593 -0.96485,0 -1.875,0.375 -2.5625,1.058593 l -8.02735,8.03125 -1.60156,-1.601562"
           fill-opacity="1"
           fill-rule="nonzero"
           id="path228" />
      </g>
      <g
         clip-path="url(#bd8b5dafff)"
         id="g234"
         transform="translate(-75.996078,-82.686701)">
        <path
           fill="#0074ad"
           d="m 226.10156,93.390625 c -1.11328,-1.109375 -1.72265,-2.589844 -1.72265,-4.164063 0,-1.574218 0.60937,-3.050781 1.72265,-4.164062 1.11328,-1.113281 2.59375,-1.726562 4.16406,-1.726562 1.57422,0 3.05469,0.613281 4.16797,1.726562 l 1.30469,1.300781 -1.60547,1.609375 -1.30469,-1.308594 c -0.68359,-0.683593 -1.59375,-1.058593 -2.5625,-1.058593 -0.96484,0 -1.875,0.375 -2.55859,1.058593 -0.68359,0.683594 -1.05859,1.597657 -1.05859,2.5625 0,0.96875 0.375,1.878907 1.05859,2.558594 l 8.58594,8.589844 4.5664,-4.570312 1.60547,1.605468 -6.17187,6.175784 -10.19141,-10.195315"
           fill-opacity="1"
           fill-rule="nonzero"
           id="path232" />
      </g>
      <path
         fill="#5ba0bd"
         d="m 174.61329,22.871889 1.60547,1.60547 -7.03515,7.03516 -1.60157,-1.60547 7.03125,-7.03516"
         fill-opacity="1"
         fill-rule="nonzero"
         id="path236" />
      <g
         clip-path="url(#3ad1aa71b7)"
         id="g240"
         transform="translate(-75.996078,-82.686701)">
        <path
           fill="#457bc2"
           d="m 248.20703,98.835938 8.02734,8.027342 c 1.11329,1.11328 1.72657,2.59375 1.72657,4.16797 0,1.57422 -0.61328,3.05078 -1.72657,4.16016 -1.11328,1.11328 -2.58984,1.73047 -4.16406,1.73047 -1.57422,0 -3.05469,-0.61329 -4.16797,-1.73047 l -1.30078,-1.30078 1.60156,-1.60547 1.30469,1.30468 c 0.6836,0.6836 1.59375,1.0586 2.5625,1.0586 0.96875,0 1.875,-0.375 2.5586,-1.0586 0.68359,-0.68359 1.0625,-1.59375 1.0625,-2.55859 0,-0.96875 -0.37891,-1.87891 -1.0625,-2.5625 l -8.02735,-8.02734 1.60547,-1.605472"
           fill-opacity="1"
           fill-rule="nonzero"
           id="path238" />
      </g>
      <g
         clip-path="url(#f0d2d03e30)"
         id="g244"
         transform="translate(-75.996078,-82.686701)">
        <path
           fill="#0074ad"
           d="m 247.90234,94.816406 c 1.11328,-1.117187 2.59375,-1.726562 4.16797,-1.726562 1.57422,0 3.05078,0.609375 4.16406,1.726562 1.11329,1.113282 1.72657,2.589844 1.72657,4.160156 0,1.574218 -0.61328,3.054688 -1.72657,4.167968 l -1.30468,1.30469 -1.60157,-1.60547 1.30079,-1.30469 c 0.68359,-0.68359 1.0625,-1.589841 1.0625,-2.562498 0,-0.964843 -0.37891,-1.871093 -1.0625,-2.558593 -0.6836,-0.683594 -1.58985,-1.058594 -2.5625,-1.058594 -0.96485,0 -1.875,0.375 -2.5586,1.058594 l -8.58594,8.585941 4.57032,4.5664 -1.60547,1.60547 -6.17188,-6.17187 10.1875,-10.187504"
           fill-opacity="1"
           fill-rule="nonzero"
           id="path242" />
      </g>
      <path
         fill="#5ba0bd"
         d="m 159.73048,36.649239 -1.60547,1.60156 -7.03515,-7.03516 1.60547,-1.60156 7.03515,7.03516"
         fill-opacity="1"
         fill-rule="nonzero"
         id="path246" />
      <g
         clip-path="url(#f6ab4849af)"
         id="g250"
         transform="translate(-75.996078,-82.686701)">
        <path
           fill="#457bc2"
           d="m 242.44922,116.92578 -8.02735,8.03125 c -1.11328,1.10938 -2.58984,1.72656 -4.16406,1.72656 -1.57422,0 -3.05469,-0.61718 -4.16406,-1.72656 -1.11328,-1.11328 -1.72656,-2.58984 -1.72656,-4.16406 0,-1.57422 0.60937,-3.05469 1.72656,-4.16406 l 1.30078,-1.3086 1.60547,1.60547 -1.30469,1.3086 c -0.68359,0.67968 -1.05859,1.58984 -1.05859,2.55859 0,0.96484 0.375,1.875 1.05859,2.5625 0.6836,0.67969 1.59375,1.05859 2.5625,1.05859 0.96485,0 1.875,-0.3789 2.5586,-1.05859 l 8.03125,-8.03125 1.60156,1.60156"
           fill-opacity="1"
           fill-rule="nonzero"
           id="path248" />
      </g>
      <g
         clip-path="url(#1d09309e0e)"
         id="g254"
         transform="translate(-75.996078,-82.686701)">
        <path
           fill="#0074ad"
           d="m 246.47266,116.62891 c 1.10937,1.10937 1.72265,2.58593 1.72265,4.16406 0,1.57422 -0.61328,3.05078 -1.72265,4.16406 -1.11329,1.10938 -2.59375,1.72656 -4.16407,1.72656 -1.57422,0 -3.05468,-0.61718 -4.16797,-1.72656 l -1.30468,-1.30078 1.60547,-1.60937 1.30468,1.30859 c 0.6836,0.67969 1.59375,1.05859 2.5625,1.05859 0.96485,0 1.875,-0.3789 2.5586,-1.05859 0.68359,-0.6875 1.05859,-1.59766 1.05859,-2.5625 0,-0.96875 -0.375,-1.87891 -1.05859,-2.55859 l -8.58594,-8.58985 -4.56641,4.57031 -1.60547,-1.60937 6.17188,-6.17188 10.19141,10.19532"
           fill-opacity="1"
           fill-rule="nonzero"
           id="path252" />
      </g>
      <path
         fill="#5ba0bd"
         d="m 145.96876,21.774239 -1.60547,-1.60547 7.03516,-7.035158 1.60156,1.601563 -7.03125,7.039065"
         fill-opacity="1"
         fill-rule="nonzero"
         id="path256" />
      <g
         clip-path="url(#b2440ddaea)"
         id="g260"
         transform="translate(-75.996078,-82.686701)">
        <path
           fill="#457bc2"
           d="m 224.36719,111.18359 -8.02735,-8.02734 c -1.11328,-1.11328 -1.72656,-2.59375 -1.72656,-4.167969 0,-1.574219 0.61328,-3.050781 1.72656,-4.160156 1.11328,-1.113281 2.58985,-1.730469 4.16407,-1.730469 1.57421,0 3.05078,0.613282 4.16796,1.730469 l 1.30079,1.300781 -1.60157,1.605469 -1.30468,-1.304687 c -0.6836,-0.683594 -1.59375,-1.058594 -2.5625,-1.058594 -0.96875,0 -1.875,0.375 -2.5586,1.058594 -0.68359,0.683593 -1.0625,1.59375 -1.0625,2.558593 0,0.96875 0.37891,1.878909 1.0625,2.562499 l 8.02735,8.02735 -1.60547,1.60546"
           fill-opacity="1"
           fill-rule="nonzero"
           id="path258" />
      </g>
      <g
         clip-path="url(#35f92c2f90)"
         id="g264"
         transform="translate(-75.996078,-82.686701)">
        <path
           fill="#0074ad"
           d="m 224.67187,115.20313 c -1.11718,1.11718 -2.59375,1.72656 -4.16796,1.72656 -1.57422,0 -3.05079,-0.60938 -4.16407,-1.72656 -1.11328,-1.11329 -1.72656,-2.58985 -1.72656,-4.16016 0,-1.57422 0.61328,-3.05469 1.72656,-4.16797 l 1.30469,-1.30469 1.60156,1.60547 -1.30078,1.30078 c -0.68359,0.6875 -1.0625,1.59375 -1.0625,2.56641 0,0.96484 0.37891,1.87109 1.0625,2.55859 0.67969,0.6836 1.58985,1.0586 2.5586,1.0586 0.96875,0 1.8789,-0.375 2.5625,-1.0586 l 8.58593,-8.58593 -4.57031,-4.56641 1.60547,-1.60547 6.17187,6.17188 -10.1875,10.1875"
           fill-opacity="1"
           fill-rule="nonzero"
           id="path262" />
      </g>
    </g>
  </g>
</svg>
