<?xml version="1.0" encoding="UTF-8" standalone="no"?>
<svg
   width="253.48726"
   zoomAndPan="magnify"
   viewBox="0 0 190.11544 69.306146"
   height="92.408195"
   preserveAspectRatio="xMidYMid"
   version="1.0"
   id="svg266"
   sodipodi:docname="logo.svg"
   inkscape:version="1.2.1 (9c6d41e4, 2022-07-14)"
   xmlns:inkscape="http://www.inkscape.org/namespaces/inkscape"
   xmlns:sodipodi="http://sodipodi.sourceforge.net/DTD/sodipodi-0.dtd"
   xmlns="http://www.w3.org/2000/svg"
   xmlns:svg="http://www.w3.org/2000/svg">
  <sodipodi:namedview
     id="namedview268"
     pagecolor="#ffffff"
     bordercolor="#666666"
     borderopacity="1.0"
     inkscape:showpageshadow="2"
     inkscape:pageopacity="0.0"
     inkscape:pagecheckerboard="0"
     inkscape:deskcolor="#d1d1d1"
     showgrid="false"
     inkscape:zoom="5.6568543"
     inkscape:cx="198.60862"
     inkscape:cy="55.596271"
     inkscape:window-width="3440"
     inkscape:window-height="1387"
     inkscape:window-x="0"
     inkscape:window-y="25"
     inkscape:window-maximized="1"
     inkscape:current-layer="svg266" />
  <defs
     id="defs28">
    <g
       id="g2" />
    <clipPath
       id="48286a91d8">
      <path
         d="m 230,83.335938 h 19 V 95 h -19 z m 0,0"
         clip-rule="nonzero"
         id="path4" />
    </clipPath>
    <clipPath
       id="bd8b5dafff">
      <path
         d="m 224,83.335938 h 19 V 104 h -19 z m 0,0"
         clip-rule="nonzero"
         id="path7" />
    </clipPath>
    <clipPath
       id="3ad1aa71b7">
      <path
         d="m 246,98 h 11.96094 v 19 H 246 Z m 0,0"
         clip-rule="nonzero"
         id="path10" />
    </clipPath>
    <clipPath
       id="f0d2d03e30">
      <path
         d="m 237,93 h 20.96094 v 19 H 237 Z m 0,0"
         clip-rule="nonzero"
         id="path13" />
    </clipPath>
    <clipPath
       id="f6ab4849af">
      <path
         d="m 224,115 h 19 v 11.68359 h -19 z m 0,0"
         clip-rule="nonzero"
         id="path16" />
    </clipPath>
    <clipPath
       id="1d09309e0e">
      <path
         d="m 230,106 h 19 v 20.68359 h -19 z m 0,0"
         clip-rule="nonzero"
         id="path19" />
    </clipPath>
    <clipPath
       id="b2440ddaea">
      <path
         d="M 214.61328,93 H 226 v 19 h -11.38672 z m 0,0"
         clip-rule="nonzero"
         id="path22" />
    </clipPath>
    <clipPath
       id="35f92c2f90">
      <path
         d="M 214.61328,98 H 235 v 19 h -20.38672 z m 0,0"
         clip-rule="nonzero"
         id="path25" />
    </clipPath>
  </defs>
  <g
     fill="#000000"
     fill-opacity="1"
     id="g36"
     transform="translate(-75.996078,-82.686701)">
    <g
       transform="translate(75.464828,123.42108)"
       id="g34">
      <g
         id="g32">
        <path
           d="m 26.09375,-5.03125 14.9375,-32.515625 c 0.394531,0.07422 0.945312,0.121094 1.65625,0.140625 0.71875,0.01172 1.457031,0.01563 2.21875,0.01563 0.800781,0 1.550781,-0.01563 2.25,-0.04687 0.695312,-0.03125 1.242188,-0.08203 1.640625,-0.15625 v 1.296875 c -1.792969,0 -3.03125,0.367187 -3.71875,1.09375 -0.679687,0.730469 -1.015625,1.875 -1.015625,3.4375 L 44.609375,-7.125 c 0.03125,1.09375 0.128906,2 0.296875,2.71875 0.164062,0.71875 0.46875,1.277344 0.90625,1.671875 0.394531,0.398437 0.972656,0.679687 1.734375,0.84375 0.757813,0.167969 1.773437,0.25 3.046875,0.25 v 1.25 c -0.804688,0 -1.886719,0 -3.25,0 -1.355469,0 -2.761719,0 -4.21875,0 -1.46875,0 -2.871094,0 -4.203125,0 -1.324219,0 -2.351563,0 -3.078125,0 v -1.25 c 1.09375,0 1.992188,-0.070313 2.703125,-0.21875 0.71875,-0.15625 1.28125,-0.429687 1.6875,-0.828125 0.394531,-0.394531 0.675781,-0.945312 0.84375,-1.65625 0.164063,-0.71875 0.25,-1.644531 0.25,-2.78125 l -0.34375,-26.078125 -15.25,33.15625 H 25 L 10,-32.265625 9.515625,-6.96875 c 0,1.929688 0.265625,3.28125 0.796875,4.0625 0.53125,0.773438 1.640625,1.195312 3.328125,1.265625 v 1.25 c -0.792969,0 -1.71875,-0.007813 -2.78125,-0.03125 -1.0625,-0.019531 -2.164063,-0.03125 -3.296875,-0.03125 -1.125,0 -2.21875,0 -3.28125,0 -1.0625,0 -2.011719,0.023437 -2.84375,0.0625 v -1.25 c 1.101562,-0.03125 2.039062,-0.113281 2.8125,-0.25 0.78125,-0.132813 1.421875,-0.382813 1.921875,-0.75 0.5,-0.394531 0.875,-0.941406 1.125,-1.640625 0.25,-0.695312 0.40625,-1.644531 0.46875,-2.84375 l 0.65625,-24.59375 C 8.421875,-33.375 8.019531,-34.550781 7.21875,-35.25 6.425781,-35.945312 5.25,-36.296875 3.6875,-36.296875 v -1.296875 c 0.53125,0.07422 1.132812,0.121094 1.8125,0.140625 0.675781,0.01172 1.347656,0.01563 2.015625,0.01563 0.664063,0 1.296875,-0.0039 1.890625,-0.01563 0.601562,-0.01953 1.085938,-0.06641 1.453125,-0.140625 z m 0,0"
           id="path30" />
      </g>
    </g>
  </g>
  <g
     fill="#000000"
     fill-opacity="1"
     id="g44"
     transform="translate(-75.996078,-82.686701)">
    <g
       transform="translate(127.44348,123.42108)"
       id="g42">
      <g
         id="g40">
        <path
           d="m 5.078125,-15.140625 c -0.105469,0.5 -0.15625,1.03125 -0.15625,1.59375 0,0.5625 0.035156,1.292969 0.109375,2.1875 0.164062,2.53125 0.941406,4.652344 2.328125,6.359375 1.394531,1.710938 3.304687,2.5625 5.734375,2.5625 1.65625,0 3.085938,-0.320312 4.296875,-0.96875 1.21875,-0.644531 2.222656,-1.453125 3.015625,-2.421875 L 21.109375,-5.375 c -0.929687,1.65625 -2.183594,3.042969 -3.765625,4.15625 -1.574219,1.117188 -3.339844,1.671875 -5.296875,1.671875 C 10.617188,0.453125 9.300781,0.15625 8.09375,-0.4375 6.882812,-1.039062 5.828125,-1.875 4.921875,-2.9375 4.023438,-4 3.320312,-5.242188 2.8125,-6.671875 c -0.511719,-1.425781 -0.765625,-2.988281 -0.765625,-4.6875 0,-2.082031 0.265625,-3.953125 0.796875,-5.609375 0.53125,-1.664062 1.242188,-3.0625 2.140625,-4.1875 0.925781,-1.164062 2.007813,-2.046875 3.25,-2.640625 1.25,-0.601563 2.585937,-0.90625 4.015625,-0.90625 0.988281,0 1.984375,0.167969 2.984375,0.5 1,0.335937 1.894531,0.835937 2.6875,1.5 0.800781,0.699219 1.445313,1.574219 1.9375,2.625 0.5,1.042969 0.765625,2.277344 0.796875,3.703125 0,0.398438 -0.05469,0.6875 -0.15625,0.875 -0.09375,0.179688 -0.339844,0.296875 -0.734375,0.359375 z m 10.65625,-1.59375 c 0.59375,0 1.019531,-0.08594 1.28125,-0.265625 0.269531,-0.1875 0.40625,-0.53125 0.40625,-1.03125 0,-0.53125 -0.125,-1.09375 -0.375,-1.6875 -0.25,-0.59375 -0.589844,-1.140625 -1.015625,-1.640625 -0.46875,-0.5 -1.039062,-0.914063 -1.703125,-1.25 -0.65625,-0.332031 -1.417969,-0.5 -2.28125,-0.5 -1.886719,0 -3.402344,0.59375 -4.546875,1.78125 -1.148438,1.179687 -1.902344,2.710937 -2.265625,4.59375 z m 0,0"
           id="path38" />
      </g>
    </g>
  </g>
  <g
     fill="#000000"
     fill-opacity="1"
     id="g52"
     transform="translate(-75.996078,-82.686701)">
    <g
       transform="translate(150.097,123.42108)"
       id="g50">
      <g
         id="g48">
        <path
           d="M 8.3125,-24.640625 C 8.21875,-23.742188 8.160156,-22.863281 8.140625,-22 c -0.023437,0.855469 -0.03125,1.5 -0.03125,1.9375 1.5,-1.09375 3.109375,-2.140625 4.828125,-3.140625 1.726562,-1 3.390625,-1.5 4.984375,-1.5 1.988281,0 3.414063,0.726563 4.28125,2.171875 0.863281,1.449219 1.296875,3.199219 1.296875,5.25 v 11.796875 c 0,1.398437 0.226562,2.386719 0.6875,2.96875 0.46875,0.585937 1.453125,0.875 2.953125,0.875 v 1.25 c -0.46875,0 -0.914063,0 -1.328125,0 -0.417969,0 -0.824219,-0.019531 -1.21875,-0.0625 -0.398438,0 -0.804688,-0.003906 -1.21875,-0.015625 C 22.957031,-0.488281 22.519531,-0.5 22.0625,-0.5 c -0.5,0 -0.960938,0.011719 -1.375,0.03125 -0.417969,0.011719 -0.824219,0.015625 -1.21875,0.015625 -0.398438,0 -0.804688,0.011719 -1.21875,0.03125 -0.417969,0.023437 -0.859375,0.03125 -1.328125,0.03125 v -1.25 c 1.425781,0 2.375,-0.289063 2.84375,-0.875 0.46875,-0.582031 0.703125,-1.570313 0.703125,-2.96875 v -11.84375 c 0,-1.65625 -0.386719,-2.847656 -1.15625,-3.578125 C 18.550781,-21.632812 17.289062,-22 15.53125,-22 c -0.5,0.03125 -1.085938,0.15625 -1.75,0.375 -0.65625,0.210938 -1.320312,0.464844 -1.984375,0.765625 -0.699219,0.335937 -1.371094,0.699219 -2.015625,1.09375 -0.648438,0.398437 -1.203125,0.792969 -1.671875,1.1875 v 13.09375 c 0,1.398437 0.234375,2.386719 0.703125,2.96875 0.46875,0.585937 1.445312,0.875 2.9375,0.875 v 1.25 c -0.5,0 -0.949219,0 -1.34375,0 -0.398438,0 -0.792969,-0.019531 -1.1875,-0.0625 -0.40625,0 -0.820312,-0.003906 -1.234375,-0.015625 C 7.578125,-0.488281 7.140625,-0.5 6.671875,-0.5 c -0.5,0 -0.960937,0.011719 -1.375,0.03125 -0.40625,0.011719 -0.8125,0.015625 -1.21875,0.015625 -0.429687,0 -0.851563,0.011719 -1.265625,0.03125 -0.417969,0.023437 -0.855469,0.03125 -1.3125,0.03125 v -1.25 c 1.457031,0 2.410156,-0.289063 2.859375,-0.875 0.445313,-0.582031 0.671875,-1.570313 0.671875,-2.96875 v -11.6875 c 0,-0.894531 -0.027344,-1.609375 -0.078125,-2.140625 -0.054687,-0.53125 -0.179687,-0.945312 -0.375,-1.25 -0.199219,-0.300781 -0.496094,-0.5 -0.890625,-0.59375 -0.398438,-0.101562 -0.945312,-0.15625 -1.640625,-0.15625 v -1.046875 c 1.0625,-0.164063 2.03125,-0.410156 2.90625,-0.734375 0.882813,-0.332031 1.691406,-0.847656 2.421875,-1.546875 z m 0,0"
           id="path46" />
      </g>
    </g>
  </g>
  <g
     fill="#000000"
     fill-opacity="1"
     id="g60"
     transform="translate(-75.996078,-82.686701)">
    <g
       transform="translate(178.72509,123.42108)"
       id="g58">
      <g
         id="g56">
        <path
           d="m 20.5625,-18.125 c 0,-0.957031 -0.21875,-1.757812 -0.65625,-2.40625 -0.429688,-0.65625 -0.9375,-1.164062 -1.53125,-1.53125 -0.636719,-0.363281 -1.320312,-0.628906 -2.046875,-0.796875 -0.730469,-0.164063 -1.40625,-0.25 -2.03125,-0.25 -1.0625,0 -2.121094,0.226563 -3.171875,0.671875 -1.042969,0.449219 -1.964844,1.125 -2.765625,2.03125 -0.824219,0.898438 -1.484375,2.015625 -1.984375,3.359375 -0.5,1.34375 -0.75,2.914063 -0.75,4.703125 0,2.917969 0.753906,5.324219 2.265625,7.21875 1.507813,1.886719 3.625,2.828125 6.34375,2.828125 0.4375,0 1.019531,-0.085937 1.75,-0.265625 0.726563,-0.1875 1.425781,-0.441406 2.09375,-0.765625 0.65625,-0.332031 1.234375,-0.710937 1.734375,-1.140625 0.5,-0.4375 0.75,-0.90625 0.75,-1.40625 z m 0,-15.140625 c 0,-0.851563 -0.04297,-1.535156 -0.125,-2.046875 -0.08594,-0.519531 -0.257812,-0.929688 -0.515625,-1.234375 -0.242187,-0.257813 -0.585937,-0.421875 -1.03125,-0.484375 -0.449219,-0.07031 -1.023437,-0.109375 -1.71875,-0.109375 v -1 c 1.0625,-0.195313 2.097656,-0.503906 3.109375,-0.921875 1.019531,-0.414062 1.910156,-0.972656 2.671875,-1.671875 h 0.890625 c -0.09375,0.898437 -0.164062,1.855469 -0.203125,2.875 -0.03125,1.011719 -0.04687,1.914063 -0.04687,2.703125 v 30.234375 c 0,1.125 0.289062,1.796875 0.875,2.015625 0.582031,0.210938 1.472656,0.28125 2.671875,0.21875 v 1 c -0.636719,0.199219 -1.542969,0.53125 -2.71875,1 -1.179692,0.460938 -2.26563,0.898438 -3.26563,1.328125 -0.199219,0.101563 -0.351562,0.113281 -0.453125,0.03125 C 20.609375,0.585938 20.5625,0.445312 20.5625,0.25 v -3.734375 c -1.367188,1.292969 -2.773438,2.261719 -4.21875,2.90625 -1.4375,0.6445312 -2.855469,0.96875 -4.25,0.96875 -1.460938,0 -2.792969,-0.3242188 -4,-0.96875 C 6.882812,-1.222656 5.847656,-2.09375 4.984375,-3.1875 c -0.867187,-1.0625 -1.53125,-2.296875 -2,-3.703125 -0.460937,-1.414063 -0.6875,-2.867187 -0.6875,-4.359375 0,-1.789062 0.328125,-3.5 0.984375,-5.125 0.664062,-1.632812 1.582031,-3.0625 2.75,-4.28125 1.125,-1.226562 2.445312,-2.207031 3.96875,-2.9375 1.53125,-0.738281 3.160156,-1.109375 4.890625,-1.109375 0.789063,0 1.625,0.09375 2.5,0.28125 0.882813,0.1875 1.941406,0.5625 3.171875,1.125 z m 0,0"
           id="path54" />
      </g>
    </g>
  </g>
  <g
     fill="#000000"
     fill-opacity="1"
     id="g68"
     transform="translate(-75.996078,-82.686701)">
    <g
       transform="translate(75.464828,147.69597)"
       id="g66">
      <g
         id="g64">
        <path
           d="m 9.484375,-1.828125 5.4375,-11.828125 c 0.144531,0.02344 0.347656,0.03906 0.609375,0.04687 0.257812,0 0.53125,0 0.8125,0 0.28125,0 0.546875,-0.0039 0.796875,-0.01563 0.257813,-0.0078 0.460937,-0.02344 0.609375,-0.04687 v 0.46875 c -0.65625,0 -1.109375,0.136719 -1.359375,0.40625 -0.242187,0.261719 -0.359375,0.671875 -0.359375,1.234375 l 0.203125,8.96875 c 0.0078,0.398438 0.03906,0.726562 0.09375,0.984375 0.0625,0.261724 0.171875,0.464849 0.328125,0.60938 0.144531,0.148438 0.359375,0.25 0.640625,0.3125 0.28125,0.0625 0.648437,0.09375 1.109375,0.09375 v 0.453125 c -0.292969,0 -0.6875,0 -1.1875,0 -0.492188,0 -1,0 -1.53125,0 -0.53125,0 -1.042969,0 -1.53125,0 -0.480469,0 -0.851562,0 -1.109375,0 V -0.59375 c 0.394531,0 0.722656,-0.023438 0.984375,-0.078125 0.257812,-0.0625 0.460938,-0.164063 0.609375,-0.3125 0.144531,-0.144531 0.242187,-0.34375 0.296875,-0.59375 C 15,-1.835938 15.03125,-2.175781 15.03125,-2.59375 l -0.125,-9.484375 -5.546875,12.0625 H 9.09375 l -5.453125,-11.71875 -0.1875,9.203125 c 0,0.699219 0.09375,1.1875 0.28125,1.46875 0.195313,0.28125 0.609375,0.4375 1.234375,0.46875 v 0.453125 c -0.292969,0 -0.632812,0 -1.015625,0 C 3.566406,-0.148438 3.164062,-0.15625 2.75,-0.15625 c -0.40625,0 -0.804688,0 -1.1875,0 -0.386719,0 -0.730469,0.007812 -1.03125,0.015625 V -0.59375 C 0.925781,-0.601562 1.265625,-0.632812 1.546875,-0.6875 1.828125,-0.738281 2.0625,-0.828125 2.25,-0.953125 2.425781,-1.097656 2.5625,-1.296875 2.65625,-1.546875 2.75,-1.804688 2.804688,-2.15625 2.828125,-2.59375 l 0.234375,-8.9375 c 0,-0.601562 -0.148438,-1.03125 -0.4375,-1.28125 -0.292969,-0.257812 -0.71875,-0.390625 -1.28125,-0.390625 v -0.46875 c 0.1875,0.02344 0.40625,0.03906 0.65625,0.04687 0.25,0 0.492188,0 0.734375,0 0.238281,0 0.46875,0 0.6875,0 0.21875,-0.0078 0.394531,-0.02344 0.53125,-0.04687 z m 0,0"
           id="path62" />
      </g>
    </g>
  </g>
  <g
     fill="#000000"
     fill-opacity="1"
     id="g76"
     transform="translate(-75.996078,-82.686701)">
    <g
       transform="translate(94.358578,147.69597)"
       id="g74">
      <g
         id="g72">
        <path
           d="m 1.84375,-5.5 c -0.03125,0.179688 -0.046875,0.371094 -0.046875,0.578125 0,0.199219 0.00781,0.464844 0.03125,0.796875 0.0625,0.917969 0.34375,1.6875 0.84375,2.3125 0.507813,0.617188 1.207031,0.921875 2.09375,0.921875 0.601563,0 1.125,-0.113281 1.5625,-0.34375 0.4375,-0.238281 0.800781,-0.535156 1.09375,-0.890625 l 0.25,0.171875 C 7.335938,-1.347656 6.882812,-0.84375 6.3125,-0.4375 5.738281,-0.0390625 5.097656,0.15625 4.390625,0.15625 3.867188,0.15625 3.382812,0.0507812 2.9375,-0.15625 2.5,-0.375 2.117188,-0.675781 1.796875,-1.0625 1.460938,-1.445312 1.203125,-1.898438 1.015625,-2.421875 0.835938,-2.941406 0.75,-3.507812 0.75,-4.125 0.75,-4.882812 0.84375,-5.566406 1.03125,-6.171875 1.226562,-6.773438 1.488281,-7.285156 1.8125,-7.703125 2.144531,-8.117188 2.535156,-8.4375 2.984375,-8.65625 3.441406,-8.875 3.929688,-8.984375 4.453125,-8.984375 c 0.363281,0 0.722656,0.0625 1.078125,0.1875 0.363281,0.117187 0.691406,0.292969 0.984375,0.53125 0.289063,0.261719 0.523437,0.585937 0.703125,0.96875 0.1875,0.375 0.285156,0.824219 0.296875,1.34375 0,0.148437 -0.023437,0.25 -0.0625,0.3125 C 7.421875,-5.578125 7.332031,-5.53125 7.1875,-5.5 Z m 3.875,-0.578125 c 0.21875,0 0.375,-0.03125 0.46875,-0.09375 C 6.289062,-6.242188 6.34375,-6.375 6.34375,-6.5625 c 0,-0.1875 -0.046875,-0.390625 -0.140625,-0.609375 -0.09375,-0.21875 -0.21875,-0.414063 -0.375,-0.59375 -0.167969,-0.1875 -0.371094,-0.335937 -0.609375,-0.453125 -0.242188,-0.125 -0.515625,-0.1875 -0.828125,-0.1875 -0.699219,0 -1.257813,0.214844 -1.671875,0.640625 -0.417969,0.429687 -0.6875,0.992187 -0.8125,1.6875 z m 0,0"
           id="path70" />
      </g>
    </g>
  </g>
  <g
     fill="#000000"
     fill-opacity="1"
     id="g84"
     transform="translate(-75.996078,-82.686701)">
    <g
       transform="translate(102.59292,147.69597)"
       id="g82">
      <g
         id="g80">
        <path
           d="M 3.03125,-8.96875 C 2.988281,-8.632812 2.960938,-8.3125 2.953125,-8 c 0,0.3125 0,0.546875 0,0.703125 0.539063,-0.394531 1.125,-0.773437 1.75,-1.140625 0.632813,-0.363281 1.238281,-0.546875 1.8125,-0.546875 0.726563,0 1.25,0.265625 1.5625,0.796875 0.3125,0.523438 0.46875,1.15625 0.46875,1.90625 V -2 c 0,0.511719 0.082031,0.875 0.25,1.09375 0.175781,0.210938 0.535156,0.3125 1.078125,0.3125 v 0.453125 c -0.167969,0 -0.328125,0 -0.484375,0 -0.148437,0 -0.292969,-0.003906 -0.4375,-0.015625 C 8.804688,-0.15625 8.65625,-0.160156 8.5,-0.171875 8.351562,-0.179688 8.195312,-0.1875 8.03125,-0.1875 c -0.1875,0 -0.359375,0.007812 -0.515625,0.015625 -0.148437,0.011719 -0.292969,0.015625 -0.4375,0.015625 -0.148437,0 -0.296875,0.007812 -0.453125,0.015625 -0.148438,0 -0.304688,0 -0.46875,0 V -0.59375 c 0.519531,0 0.863281,-0.101562 1.03125,-0.3125 C 7.351562,-1.125 7.4375,-1.488281 7.4375,-2 V -6.296875 C 7.4375,-6.898438 7.296875,-7.332031 7.015625,-7.59375 6.742188,-7.863281 6.289062,-8 5.65625,-8 c -0.1875,0.011719 -0.402344,0.058594 -0.640625,0.140625 -0.242187,0.074219 -0.480469,0.164063 -0.71875,0.265625 -0.261719,0.125 -0.511719,0.261719 -0.75,0.40625 -0.230469,0.148438 -0.429687,0.292969 -0.59375,0.4375 V -2 c 0,0.511719 0.082031,0.875 0.25,1.09375 0.164063,0.210938 0.523437,0.3125 1.078125,0.3125 v 0.453125 c -0.1875,0 -0.355469,0 -0.5,0 -0.148438,0 -0.292969,-0.003906 -0.4375,-0.015625 -0.136719,0 -0.28125,-0.003906 -0.4375,-0.015625 C 2.757812,-0.179688 2.597656,-0.1875 2.421875,-0.1875 c -0.179687,0 -0.34375,0.007812 -0.5,0.015625 -0.148437,0.011719 -0.292969,0.015625 -0.4375,0.015625 -0.15625,0 -0.3125,0.007812 -0.46875,0.015625 -0.148437,0 -0.304687,0 -0.46875,0 V -0.59375 c 0.53125,0 0.875,-0.101562 1.03125,-0.3125 0.164063,-0.21875 0.25,-0.582031 0.25,-1.09375 v -4.25 c 0,-0.320312 -0.011719,-0.578125 -0.03125,-0.765625 -0.011719,-0.195313 -0.054687,-0.351563 -0.125,-0.46875 C 1.597656,-7.585938 1.488281,-7.65625 1.34375,-7.6875 1.195312,-7.726562 1,-7.75 0.75,-7.75 v -0.375 c 0.382812,-0.0625 0.734375,-0.148438 1.046875,-0.265625 0.320313,-0.125 0.617187,-0.316406 0.890625,-0.578125 z m 0,0"
           id="path78" />
      </g>
    </g>
  </g>
  <g
     fill="#000000"
     fill-opacity="1"
     id="g92"
     transform="translate(-75.996078,-82.686701)">
    <g
       transform="translate(112.99896,147.69597)"
       id="g90">
      <g
         id="g88">
        <path
           d="m 2.796875,-2.515625 c 0,0.699219 0.097656,1.179687 0.296875,1.4375 0.207031,0.25 0.488281,0.375 0.84375,0.375 0.101562,0 0.234375,-0.015625 0.390625,-0.046875 0.164063,-0.039062 0.328125,-0.09375 0.484375,-0.15625 0.175781,-0.0625 0.328125,-0.117188 0.453125,-0.171875 0.132813,-0.0625 0.238281,-0.125 0.3125,-0.1875 l 0.15625,0.25 C 5.390625,-0.648438 5.023438,-0.363281 4.640625,-0.15625 4.253906,0.0507812 3.832031,0.15625 3.375,0.15625 c -0.53125,0 -0.949219,-0.15234375 -1.25,-0.453125 -0.304688,-0.300781 -0.453125,-0.738281 -0.453125,-1.3125 v -6.0625 H 0.40625 V -8.03125 C 1,-8.195312 1.445312,-8.488281 1.75,-8.90625 2.050781,-9.332031 2.269531,-9.925781 2.40625,-10.6875 h 0.390625 v 2.21875 H 5.6875 v 0.796875 H 2.796875 Z m 0,0"
           id="path86" />
      </g>
    </g>
  </g>
  <g
     fill="#000000"
     fill-opacity="1"
     id="g100"
     transform="translate(-75.996078,-82.686701)">
    <g
       transform="translate(119.07971,147.69597)"
       id="g98">
      <g
         id="g96">
        <path
           d="m 5.921875,-4.5625 c -1.324219,0.398438 -2.320313,0.765625 -2.984375,1.109375 -0.65625,0.34375 -0.984375,0.78125 -0.984375,1.3125 0,0.5625 0.140625,0.945313 0.421875,1.140625 0.289062,0.199219 0.6875,0.296875 1.1875,0.296875 0.445312,0 0.875,-0.117187 1.28125,-0.359375 0.414062,-0.25 0.773438,-0.535156 1.078125,-0.859375 z m 2.734375,3.734375 c -0.261719,0.25 -0.542969,0.480469 -0.84375,0.6875 C 7.519531,0.0546875 7.222656,0.15625 6.921875,0.15625 6.628906,0.15625 6.394531,0.0234375 6.21875,-0.234375 6.039062,-0.503906 5.941406,-0.890625 5.921875,-1.390625 5.472656,-0.921875 4.976562,-0.546875 4.4375,-0.265625 3.894531,0.015625 3.328125,0.15625 2.734375,0.15625 c -0.542969,0 -1,-0.1757812 -1.375,-0.53125 -0.375,-0.351562 -0.554687,-0.800781 -0.53125,-1.34375 0.007813,-0.445312 0.144531,-0.828125 0.40625,-1.140625 C 1.492188,-3.179688 1.851562,-3.46875 2.3125,-3.71875 2.757812,-3.957031 3.289062,-4.175781 3.90625,-4.375 c 0.625,-0.207031 1.296875,-0.425781 2.015625,-0.65625 v -1.25 c 0,-0.53125 -0.125,-0.96875 -0.375,-1.3125 -0.242187,-0.34375 -0.71875,-0.515625 -1.4375,-0.515625 -0.511719,0 -0.964844,0.148437 -1.359375,0.4375 -0.386719,0.292969 -0.585938,0.652344 -0.59375,1.078125 0,0.292969 -0.058594,0.507812 -0.171875,0.640625 -0.117187,0.125 -0.257813,0.1875 -0.421875,0.1875 -0.148438,0 -0.261719,-0.054687 -0.34375,-0.171875 -0.074219,-0.125 -0.109375,-0.28125 -0.109375,-0.46875 0,-0.332031 0.148437,-0.648438 0.453125,-0.953125 0.3125,-0.300781 0.8125,-0.628906 1.5,-0.984375 0.394531,-0.21875 0.722656,-0.375 0.984375,-0.46875 0.257813,-0.101562 0.535156,-0.15625 0.828125,-0.15625 0.570312,0 1.070312,0.179688 1.5,0.53125 0.4375,0.34375 0.65625,0.851562 0.65625,1.515625 v 4.953125 c 0,0.679688 0.144531,1.0625 0.4375,1.15625 0.300781,0.09375 0.679688,-0.015625 1.140625,-0.328125 z m 0,0"
           id="path94" />
      </g>
    </g>
  </g>
  <g
     fill="#000000"
     fill-opacity="1"
     id="g108"
     transform="translate(-75.996078,-82.686701)">
    <g
       transform="translate(128.3999,147.69597)"
       id="g106">
      <g
         id="g104">
        <path
           d="m 1.953125,-12.09375 c 0,-0.3125 -0.015625,-0.5625 -0.046875,-0.75 -0.03125,-0.1875 -0.09375,-0.335938 -0.1875,-0.453125 -0.085938,-0.09375 -0.210938,-0.148437 -0.375,-0.171875 C 1.1875,-13.5 0.976562,-13.51562 0.71875,-13.51562 V -13.875 c 0.382812,-0.07031 0.757812,-0.179688 1.125,-0.328125 0.375,-0.15625 0.703125,-0.359375 0.984375,-0.609375 H 3.15625 c -0.042969,0.324219 -0.070312,0.671875 -0.078125,1.046875 C 3.066406,-13.398438 3.0625,-13.070312 3.0625,-12.78125 V -2 c 0,0.511719 0.082031,0.875 0.25,1.09375 0.164062,0.210938 0.515625,0.3125 1.046875,0.3125 v 0.453125 c -0.261719,0 -0.558594,0 -0.890625,0 C 3.132812,-0.148438 2.804688,-0.15625 2.484375,-0.15625 c -0.34375,0 -0.679687,0 -1,0 -0.3125,0 -0.589844,0.007812 -0.828125,0.015625 V -0.59375 c 0.539062,0 0.890625,-0.09375 1.046875,-0.28125 0.164063,-0.1875 0.25,-0.5625 0.25,-1.125 z m 0,0"
           id="path102" />
      </g>
    </g>
  </g>
  <g
     fill="#000000"
     fill-opacity="1"
     id="g114"
     transform="translate(-75.996078,-82.686701)">
    <g
       transform="translate(133.3948,147.69597)"
       id="g112">
      <g
         id="g110" />
    </g>
  </g>
  <g
     fill="#000000"
     fill-opacity="1"
     id="g122"
     transform="translate(-75.996078,-82.686701)">
    <g
       transform="translate(138.95072,147.69597)"
       id="g120">
      <g
         id="g118">
        <path
           d="m 12.140625,-7.609375 v -3.875 c 0,-0.382813 -0.03125,-0.6875 -0.09375,-0.90625 -0.0625,-0.226563 -0.164063,-0.398437 -0.296875,-0.515625 -0.125,-0.125 -0.308594,-0.203125 -0.546875,-0.234375 -0.242187,-0.03125 -0.527344,-0.05078 -0.859375,-0.0625 v -0.46875 c 0.25,0.01172 0.597656,0.02344 1.046875,0.03125 0.445313,0 0.90625,0 1.375,0 0.488281,0 0.941406,0 1.359375,0 0.425781,-0.0078 0.753906,-0.01953 0.984375,-0.03125 v 0.46875 c -0.355469,0.01172 -0.648437,0.03906 -0.875,0.07813 -0.230469,0.03125 -0.414063,0.109375 -0.546875,0.234375 -0.148438,0.117187 -0.246094,0.289063 -0.296875,0.515625 -0.04297,0.21875 -0.0625,0.515625 -0.0625,0.890625 v 8.9375 c 0,0.40625 0.01953,0.742187 0.0625,1 0.05078,0.25 0.144531,0.449219 0.28125,0.59375 0.132813,0.136719 0.316406,0.230469 0.546875,0.28125 0.226562,0.054687 0.523438,0.078125 0.890625,0.078125 v 0.453125 c -0.230469,-0.007813 -0.5625,-0.019531 -1,-0.03125 -0.429687,-0.007813 -0.875,-0.015625 -1.34375,-0.015625 -0.46875,0 -0.929687,0.007812 -1.375,0.015625 -0.449219,0.011719 -0.796875,0.023437 -1.046875,0.03125 v -0.45313 c 0.375,0 0.675781,-0.03125 0.90625,-0.09375 0.226562,-0.0625 0.410156,-0.164062 0.546875,-0.3125 0.125,-0.144531 0.210937,-0.335938 0.265625,-0.578125 0.05078,-0.25 0.07813,-0.570313 0.07813,-0.96875 V -6.84375 H 3.5625 v 4.296875 c 0,0.398437 0.015625,0.71875 0.046875,0.96875 0.039063,0.25 0.128906,0.449219 0.265625,0.59375 0.125,0.148437 0.300781,0.25 0.53125,0.3125 0.226562,0.054687 0.535156,0.078125 0.921875,0.078125 v 0.453125 c -0.242187,0 -0.578125,0 -1.015625,0 -0.429688,-0.007813 -0.875,-0.015625 -1.34375,-0.015625 -0.480469,0 -0.9375,0 -1.375,0 -0.4375,0 -0.777344,0.007812 -1.015625,0.015625 V -0.59375 c 0.726563,0 1.207031,-0.128906 1.4375,-0.390625 0.226563,-0.257813 0.34375,-0.78125 0.34375,-1.5625 v -8.875 c 0,-0.394531 -0.03125,-0.707031 -0.09375,-0.9375 C 2.210938,-12.585938 2.125,-12.757812 2,-12.875 c -0.136719,-0.132812 -0.320312,-0.21875 -0.546875,-0.25 -0.230469,-0.03906 -0.523437,-0.06641 -0.875,-0.07813 v -0.46875 c 0.226563,0.02344 0.554687,0.03906 0.984375,0.04687 0.425781,0 0.882812,0 1.375,0 0.46875,0 0.921875,0 1.359375,0 0.445313,-0.0078 0.789063,-0.02344 1.03125,-0.04687 v 0.46875 c -0.355469,0.01172 -0.648437,0.03906 -0.875,0.07813 -0.230469,0.04297 -0.414063,0.125 -0.546875,0.25 -0.125,0.136719 -0.214844,0.320312 -0.265625,0.546875 -0.054687,0.230469 -0.078125,0.53125 -0.078125,0.90625 v 3.8125 z m 0,0"
           id="path116" />
      </g>
    </g>
  </g>
  <g
     fill="#000000"
     fill-opacity="1"
     id="g130"
     transform="translate(-75.996078,-82.686701)">
    <g
       transform="translate(154.62313,147.69597)"
       id="g128">
      <g
         id="g126">
        <path
           d="m 1.84375,-5.5 c -0.03125,0.179688 -0.046875,0.371094 -0.046875,0.578125 0,0.199219 0.00781,0.464844 0.03125,0.796875 0.0625,0.917969 0.34375,1.6875 0.84375,2.3125 0.507813,0.617188 1.207031,0.921875 2.09375,0.921875 0.601563,0 1.125,-0.113281 1.5625,-0.34375 0.4375,-0.238281 0.800781,-0.535156 1.09375,-0.890625 l 0.25,0.171875 C 7.335938,-1.347656 6.882812,-0.84375 6.3125,-0.4375 5.738281,-0.0390625 5.097656,0.15625 4.390625,0.15625 3.867188,0.15625 3.382812,0.0507812 2.9375,-0.15625 2.5,-0.375 2.117188,-0.675781 1.796875,-1.0625 1.460938,-1.445312 1.203125,-1.898438 1.015625,-2.421875 0.835938,-2.941406 0.75,-3.507812 0.75,-4.125 0.75,-4.882812 0.84375,-5.566406 1.03125,-6.171875 1.226562,-6.773438 1.488281,-7.285156 1.8125,-7.703125 2.144531,-8.117188 2.535156,-8.4375 2.984375,-8.65625 3.441406,-8.875 3.929688,-8.984375 4.453125,-8.984375 c 0.363281,0 0.722656,0.0625 1.078125,0.1875 0.363281,0.117187 0.691406,0.292969 0.984375,0.53125 0.289063,0.261719 0.523437,0.585937 0.703125,0.96875 0.1875,0.375 0.285156,0.824219 0.296875,1.34375 0,0.148437 -0.023437,0.25 -0.0625,0.3125 C 7.421875,-5.578125 7.332031,-5.53125 7.1875,-5.5 Z m 3.875,-0.578125 c 0.21875,0 0.375,-0.03125 0.46875,-0.09375 C 6.289062,-6.242188 6.34375,-6.375 6.34375,-6.5625 c 0,-0.1875 -0.046875,-0.390625 -0.140625,-0.609375 -0.09375,-0.21875 -0.21875,-0.414063 -0.375,-0.59375 -0.167969,-0.1875 -0.371094,-0.335937 -0.609375,-0.453125 -0.242188,-0.125 -0.515625,-0.1875 -0.828125,-0.1875 -0.699219,0 -1.257813,0.214844 -1.671875,0.640625 -0.417969,0.429687 -0.6875,0.992187 -0.8125,1.6875 z m 0,0"
           id="path124" />
      </g>
    </g>
  </g>
  <g
     fill="#000000"
     fill-opacity="1"
     id="g138"
     transform="translate(-75.996078,-82.686701)">
    <g
       transform="translate(162.85747,147.69597)"
       id="g136">
      <g
         id="g134">
        <path
           d="m 5.921875,-4.5625 c -1.324219,0.398438 -2.320313,0.765625 -2.984375,1.109375 -0.65625,0.34375 -0.984375,0.78125 -0.984375,1.3125 0,0.5625 0.140625,0.945313 0.421875,1.140625 0.289062,0.199219 0.6875,0.296875 1.1875,0.296875 0.445312,0 0.875,-0.117187 1.28125,-0.359375 0.414062,-0.25 0.773438,-0.535156 1.078125,-0.859375 z m 2.734375,3.734375 c -0.261719,0.25 -0.542969,0.480469 -0.84375,0.6875 C 7.519531,0.0546875 7.222656,0.15625 6.921875,0.15625 6.628906,0.15625 6.394531,0.0234375 6.21875,-0.234375 6.039062,-0.503906 5.941406,-0.890625 5.921875,-1.390625 5.472656,-0.921875 4.976562,-0.546875 4.4375,-0.265625 3.894531,0.015625 3.328125,0.15625 2.734375,0.15625 c -0.542969,0 -1,-0.1757812 -1.375,-0.53125 -0.375,-0.351562 -0.554687,-0.800781 -0.53125,-1.34375 0.007813,-0.445312 0.144531,-0.828125 0.40625,-1.140625 C 1.492188,-3.179688 1.851562,-3.46875 2.3125,-3.71875 2.757812,-3.957031 3.289062,-4.175781 3.90625,-4.375 c 0.625,-0.207031 1.296875,-0.425781 2.015625,-0.65625 v -1.25 c 0,-0.53125 -0.125,-0.96875 -0.375,-1.3125 -0.242187,-0.34375 -0.71875,-0.515625 -1.4375,-0.515625 -0.511719,0 -0.964844,0.148437 -1.359375,0.4375 -0.386719,0.292969 -0.585938,0.652344 -0.59375,1.078125 0,0.292969 -0.058594,0.507812 -0.171875,0.640625 -0.117187,0.125 -0.257813,0.1875 -0.421875,0.1875 -0.148438,0 -0.261719,-0.054687 -0.34375,-0.171875 -0.074219,-0.125 -0.109375,-0.28125 -0.109375,-0.46875 0,-0.332031 0.148437,-0.648438 0.453125,-0.953125 0.3125,-0.300781 0.8125,-0.628906 1.5,-0.984375 0.394531,-0.21875 0.722656,-0.375 0.984375,-0.46875 0.257813,-0.101562 0.535156,-0.15625 0.828125,-0.15625 0.570312,0 1.070312,0.179688 1.5,0.53125 0.4375,0.34375 0.65625,0.851562 0.65625,1.515625 v 4.953125 c 0,0.679688 0.144531,1.0625 0.4375,1.15625 0.300781,0.09375 0.679688,-0.015625 1.140625,-0.328125 z m 0,0"
           id="path132" />
      </g>
    </g>
  </g>
  <g
     fill="#000000"
     fill-opacity="1"
     id="g146"
     transform="translate(-75.996078,-82.686701)">
    <g
       transform="translate(172.17766,147.69597)"
       id="g144">
      <g
         id="g142">
        <path
           d="m 1.953125,-12.09375 c 0,-0.3125 -0.015625,-0.5625 -0.046875,-0.75 -0.03125,-0.1875 -0.09375,-0.335938 -0.1875,-0.453125 -0.085938,-0.09375 -0.210938,-0.148437 -0.375,-0.171875 C 1.1875,-13.5 0.976562,-13.51562 0.71875,-13.51562 V -13.875 c 0.382812,-0.07031 0.757812,-0.179688 1.125,-0.328125 0.375,-0.15625 0.703125,-0.359375 0.984375,-0.609375 H 3.15625 c -0.042969,0.324219 -0.070312,0.671875 -0.078125,1.046875 C 3.066406,-13.398438 3.0625,-13.070312 3.0625,-12.78125 V -2 c 0,0.511719 0.082031,0.875 0.25,1.09375 0.164062,0.210938 0.515625,0.3125 1.046875,0.3125 v 0.453125 c -0.261719,0 -0.558594,0 -0.890625,0 C 3.132812,-0.148438 2.804688,-0.15625 2.484375,-0.15625 c -0.34375,0 -0.679687,0 -1,0 -0.3125,0 -0.589844,0.007812 -0.828125,0.015625 V -0.59375 c 0.539062,0 0.890625,-0.09375 1.046875,-0.28125 0.164063,-0.1875 0.25,-0.5625 0.25,-1.125 z m 0,0"
           id="path140" />
      </g>
    </g>
  </g>
  <g
     fill="#000000"
     fill-opacity="1"
     id="g154"
     transform="translate(-75.996078,-82.686701)">
    <g
       transform="translate(177.17256,147.69597)"
       id="g152">
      <g
         id="g150">
        <path
           d="m 2.796875,-2.515625 c 0,0.699219 0.097656,1.179687 0.296875,1.4375 0.207031,0.25 0.488281,0.375 0.84375,0.375 0.101562,0 0.234375,-0.015625 0.390625,-0.046875 0.164063,-0.039062 0.328125,-0.09375 0.484375,-0.15625 0.175781,-0.0625 0.328125,-0.117188 0.453125,-0.171875 0.132813,-0.0625 0.238281,-0.125 0.3125,-0.1875 l 0.15625,0.25 C 5.390625,-0.648438 5.023438,-0.363281 4.640625,-0.15625 4.253906,0.0507812 3.832031,0.15625 3.375,0.15625 c -0.53125,0 -0.949219,-0.15234375 -1.25,-0.453125 -0.304688,-0.300781 -0.453125,-0.738281 -0.453125,-1.3125 v -6.0625 H 0.40625 V -8.03125 C 1,-8.195312 1.445312,-8.488281 1.75,-8.90625 2.050781,-9.332031 2.269531,-9.925781 2.40625,-10.6875 h 0.390625 v 2.21875 H 5.6875 v 0.796875 H 2.796875 Z m 0,0"
           id="path148" />
      </g>
    </g>
  </g>
  <g
     fill="#000000"
     fill-opacity="1"
     id="g162"
     transform="translate(-75.996078,-82.686701)">
    <g
       transform="translate(183.25331,147.69597)"
       id="g160">
      <g
         id="g158">
        <path
           d="m 1.828125,-12.09375 c 0,-0.3125 -0.015625,-0.5625 -0.046875,-0.75 -0.03125,-0.1875 -0.089844,-0.335938 -0.171875,-0.453125 -0.085937,-0.09375 -0.210937,-0.148437 -0.375,-0.171875 -0.15625,-0.03125 -0.367187,-0.04687 -0.625,-0.04687 V -13.875 C 1.003906,-13.94531 1.382812,-14.054688 1.75,-14.203125 2.113281,-14.359375 2.4375,-14.5625 2.71875,-14.8125 h 0.328125 c -0.042969,0.324219 -0.070313,0.671875 -0.078125,1.046875 -0.011719,0.367187 -0.015625,0.695313 -0.015625,0.984375 v 5.796875 c 0.175781,-0.207031 0.382813,-0.425781 0.625,-0.65625 0.238281,-0.226563 0.488281,-0.445313 0.75,-0.65625 0.28125,-0.1875 0.570313,-0.347656 0.875,-0.484375 0.3125,-0.132812 0.628906,-0.203125 0.953125,-0.203125 0.75,0 1.332031,0.28125 1.75,0.84375 0.425781,0.554687 0.640625,1.246094 0.640625,2.078125 v 4.046875 c 0,0.28125 0.00781,0.515625 0.03125,0.703125 0.019531,0.179688 0.070313,0.320312 0.15625,0.421875 0.082031,0.117187 0.210937,0.195313 0.390625,0.234375 0.1875,0.042969 0.4375,0.0625 0.75,0.0625 v 0.453125 c -0.167969,0 -0.328125,0 -0.484375,0 -0.148437,0 -0.292969,-0.003906 -0.4375,-0.015625 C 8.804688,-0.15625 8.65625,-0.160156 8.5,-0.171875 8.34375,-0.179688 8.171875,-0.1875 7.984375,-0.1875 c -0.179687,0 -0.34375,0.007812 -0.5,0.015625 -0.148437,0.011719 -0.292969,0.015625 -0.4375,0.015625 -0.148437,0 -0.296875,0.007812 -0.453125,0.015625 -0.148438,0 -0.304688,0 -0.46875,0 V -0.59375 c 0.257812,0 0.476562,-0.007812 0.65625,-0.03125 0.175781,-0.03125 0.3125,-0.09375 0.40625,-0.1875 0.09375,-0.09375 0.15625,-0.234375 0.1875,-0.421875 0.039062,-0.1875 0.0625,-0.445313 0.0625,-0.78125 V -4.9375 c 0,-0.59375 -0.03125,-1.078125 -0.09375,-1.453125 C 7.28125,-6.773438 7.171875,-7.082031 7.015625,-7.3125 6.867188,-7.539062 6.671875,-7.703125 6.421875,-7.796875 6.171875,-7.890625 5.863281,-7.9375 5.5,-7.9375 c -0.4375,0 -0.902344,0.167969 -1.390625,0.5 -0.480469,0.335938 -0.867187,0.699219 -1.15625,1.09375 v 4.328125 c 0,0.574219 0.070313,0.953125 0.21875,1.140625 0.15625,0.1875 0.523437,0.28125 1.109375,0.28125 v 0.453125 c -0.1875,0 -0.355469,0 -0.5,0 -0.148438,0 -0.292969,-0.003906 -0.4375,-0.015625 -0.136719,0 -0.28125,-0.003906 -0.4375,-0.015625 C 2.757812,-0.179688 2.597656,-0.1875 2.421875,-0.1875 c -0.179687,0 -0.34375,0.007812 -0.5,0.015625 -0.148437,0.011719 -0.292969,0.015625 -0.4375,0.015625 -0.15625,0 -0.3125,0.007812 -0.46875,0.015625 -0.148437,0 -0.304687,0 -0.46875,0 V -0.59375 c 0.539063,0 0.890625,-0.085938 1.046875,-0.265625 0.15625,-0.1875 0.234375,-0.570313 0.234375,-1.15625 z m 0,0"
           id="path156" />
      </g>
    </g>
  </g>
  <g
     fill="#000000"
     fill-opacity="1"
     id="g168"
     transform="translate(-75.996078,-82.686701)">
    <g
       transform="translate(193.65935,147.69597)"
       id="g166">
      <g
         id="g164" />
    </g>
  </g>
  <g
     fill="#000000"
     fill-opacity="1"
     id="g176"
     transform="translate(-75.996078,-82.686701)">
    <g
       transform="translate(199.21527,147.69597)"
       id="g174">
      <g
         id="g172">
        <path
           d="m 11.84375,-11.171875 h -0.484375 c -0.01172,-0.351563 -0.03906,-0.644531 -0.07813,-0.875 -0.04297,-0.226563 -0.132812,-0.410156 -0.265625,-0.546875 -0.148437,-0.144531 -0.351563,-0.242188 -0.609375,-0.296875 -0.25,-0.05078 -0.59375,-0.07813 -1.03125,-0.07813 H 6.8125 V -2.57813 c 0,0.417969 0.019531,0.75 0.0625,1 0.050781,0.25 0.144531,0.449219 0.28125,0.59375 0.132812,0.148437 0.316406,0.25 0.546875,0.3125 0.226563,0.054687 0.519531,0.078125 0.875,0.078125 v 0.453125 c -0.3125,0 -0.679687,0 -1.09375,0 -0.417969,-0.007808 -0.839844,-0.01562 -1.265625,-0.01562 -0.449219,0 -0.882812,0 -1.296875,0 -0.417969,0 -0.777344,0.007812 -1.078125,0.015625 V -0.59375 c 0.6875,0 1.148438,-0.125 1.390625,-0.375 C 5.472656,-1.226562 5.59375,-1.765625 5.59375,-2.578125 V -12.96875 H 3.390625 c -0.449219,0 -0.820313,0.02734 -1.109375,0.07813 -0.28125,0.05469 -0.511719,0.148437 -0.6875,0.28125 -0.179688,0.136719 -0.320312,0.320313 -0.421875,0.546875 -0.105469,0.230469 -0.199219,0.527344 -0.28125,0.890625 H 0.40625 l 0.1875,-2.5 c 0.789062,0.03125 1.679688,0.05859 2.671875,0.07813 0.988281,0.01172 1.992187,0.01563 3.015625,0.01563 1.039062,0 2.054688,-0.0039 3.046875,-0.01563 0.988281,-0.01953 1.882813,-0.04687 2.6875,-0.07813 z m 0,0"
           id="path170" />
      </g>
    </g>
  </g>
  <g
     fill="#000000"
     fill-opacity="1"
     id="g184"
     transform="translate(-75.996078,-82.686701)">
    <g
       transform="translate(211.61203,147.69597)"
       id="g182">
      <g
         id="g180">
        <path
           d="m 1.828125,-12.09375 c 0,-0.3125 -0.015625,-0.5625 -0.046875,-0.75 -0.03125,-0.1875 -0.089844,-0.335938 -0.171875,-0.453125 -0.085937,-0.09375 -0.210937,-0.148437 -0.375,-0.171875 -0.15625,-0.03125 -0.367187,-0.04687 -0.625,-0.04687 V -13.875 C 1.003906,-13.94531 1.382812,-14.054688 1.75,-14.203125 2.113281,-14.359375 2.4375,-14.5625 2.71875,-14.8125 h 0.328125 c -0.042969,0.324219 -0.070313,0.671875 -0.078125,1.046875 -0.011719,0.367187 -0.015625,0.695313 -0.015625,0.984375 v 5.796875 c 0.175781,-0.207031 0.382813,-0.425781 0.625,-0.65625 0.238281,-0.226563 0.488281,-0.445313 0.75,-0.65625 0.28125,-0.1875 0.570313,-0.347656 0.875,-0.484375 0.3125,-0.132812 0.628906,-0.203125 0.953125,-0.203125 0.75,0 1.332031,0.28125 1.75,0.84375 0.425781,0.554687 0.640625,1.246094 0.640625,2.078125 v 4.046875 c 0,0.28125 0.00781,0.515625 0.03125,0.703125 0.019531,0.179688 0.070313,0.320312 0.15625,0.421875 0.082031,0.117187 0.210937,0.195313 0.390625,0.234375 0.1875,0.042969 0.4375,0.0625 0.75,0.0625 v 0.453125 c -0.167969,0 -0.328125,0 -0.484375,0 -0.148437,0 -0.292969,-0.003906 -0.4375,-0.015625 C 8.804688,-0.15625 8.65625,-0.160156 8.5,-0.171875 8.34375,-0.179688 8.171875,-0.1875 7.984375,-0.1875 c -0.179687,0 -0.34375,0.007812 -0.5,0.015625 -0.148437,0.011719 -0.292969,0.015625 -0.4375,0.015625 -0.148437,0 -0.296875,0.007812 -0.453125,0.015625 -0.148438,0 -0.304688,0 -0.46875,0 V -0.59375 c 0.257812,0 0.476562,-0.007812 0.65625,-0.03125 0.175781,-0.03125 0.3125,-0.09375 0.40625,-0.1875 0.09375,-0.09375 0.15625,-0.234375 0.1875,-0.421875 0.039062,-0.1875 0.0625,-0.445313 0.0625,-0.78125 V -4.9375 c 0,-0.59375 -0.03125,-1.078125 -0.09375,-1.453125 C 7.28125,-6.773438 7.171875,-7.082031 7.015625,-7.3125 6.867188,-7.539062 6.671875,-7.703125 6.421875,-7.796875 6.171875,-7.890625 5.863281,-7.9375 5.5,-7.9375 c -0.4375,0 -0.902344,0.167969 -1.390625,0.5 -0.480469,0.335938 -0.867187,0.699219 -1.15625,1.09375 v 4.328125 c 0,0.574219 0.070313,0.953125 0.21875,1.140625 0.15625,0.1875 0.523437,0.28125 1.109375,0.28125 v 0.453125 c -0.1875,0 -0.355469,0 -0.5,0 -0.148438,0 -0.292969,-0.003906 -0.4375,-0.015625 -0.136719,0 -0.28125,-0.003906 -0.4375,-0.015625 C 2.757812,-0.179688 2.597656,-0.1875 2.421875,-0.1875 c -0.179687,0 -0.34375,0.007812 -0.5,0.015625 -0.148437,0.011719 -0.292969,0.015625 -0.4375,0.015625 -0.15625,0 -0.3125,0.007812 -0.46875,0.015625 -0.148437,0 -0.304687,0 -0.46875,0 V -0.59375 c 0.539063,0 0.890625,-0.085938 1.046875,-0.265625 0.15625,-0.1875 0.234375,-0.570313 0.234375,-1.15625 z m 0,0"
           id="path178" />
      </g>
    </g>
  </g>
  <g
     fill="#000000"
     fill-opacity="1"
     id="g192"
     transform="translate(-75.996078,-82.686701)">
    <g
       transform="translate(222.01807,147.69597)"
       id="g190">
      <g
         id="g188">
        <path
           d="m 1.84375,-5.5 c -0.03125,0.179688 -0.046875,0.371094 -0.046875,0.578125 0,0.199219 0.00781,0.464844 0.03125,0.796875 0.0625,0.917969 0.34375,1.6875 0.84375,2.3125 0.507813,0.617188 1.207031,0.921875 2.09375,0.921875 0.601563,0 1.125,-0.113281 1.5625,-0.34375 0.4375,-0.238281 0.800781,-0.535156 1.09375,-0.890625 l 0.25,0.171875 C 7.335938,-1.347656 6.882812,-0.84375 6.3125,-0.4375 5.738281,-0.0390625 5.097656,0.15625 4.390625,0.15625 3.867188,0.15625 3.382812,0.0507812 2.9375,-0.15625 2.5,-0.375 2.117188,-0.675781 1.796875,-1.0625 1.460938,-1.445312 1.203125,-1.898438 1.015625,-2.421875 0.835938,-2.941406 0.75,-3.507812 0.75,-4.125 0.75,-4.882812 0.84375,-5.566406 1.03125,-6.171875 1.226562,-6.773438 1.488281,-7.285156 1.8125,-7.703125 2.144531,-8.117188 2.535156,-8.4375 2.984375,-8.65625 3.441406,-8.875 3.929688,-8.984375 4.453125,-8.984375 c 0.363281,0 0.722656,0.0625 1.078125,0.1875 0.363281,0.117187 0.691406,0.292969 0.984375,0.53125 0.289063,0.261719 0.523437,0.585937 0.703125,0.96875 0.1875,0.375 0.285156,0.824219 0.296875,1.34375 0,0.148437 -0.023437,0.25 -0.0625,0.3125 C 7.421875,-5.578125 7.332031,-5.53125 7.1875,-5.5 Z m 3.875,-0.578125 c 0.21875,0 0.375,-0.03125 0.46875,-0.09375 C 6.289062,-6.242188 6.34375,-6.375 6.34375,-6.5625 c 0,-0.1875 -0.046875,-0.390625 -0.140625,-0.609375 -0.09375,-0.21875 -0.21875,-0.414063 -0.375,-0.59375 -0.167969,-0.1875 -0.371094,-0.335937 -0.609375,-0.453125 -0.242188,-0.125 -0.515625,-0.1875 -0.828125,-0.1875 -0.699219,0 -1.257813,0.214844 -1.671875,0.640625 -0.417969,0.429687 -0.6875,0.992187 -0.8125,1.6875 z m 0,0"
           id="path186" />
      </g>
    </g>
  </g>
  <g
     fill="#000000"
     fill-opacity="1"
     id="g200"
     transform="translate(-75.996078,-82.686701)">
    <g
       transform="translate(230.25242,147.69597)"
       id="g198">
      <g
         id="g196">
        <path
           d="m 3.0625,-6.984375 c 0.175781,-0.25 0.378906,-0.488281 0.609375,-0.71875 0.226563,-0.238281 0.457031,-0.453125 0.6875,-0.640625 0.25,-0.1875 0.488281,-0.335938 0.71875,-0.453125 0.226563,-0.113281 0.441406,-0.171875 0.640625,-0.171875 0.289062,0 0.546875,0.078125 0.765625,0.234375 0.21875,0.148437 0.328125,0.355469 0.328125,0.625 0,0.292969 -0.089844,0.511719 -0.265625,0.65625 -0.179687,0.148437 -0.34375,0.21875 -0.5,0.21875 -0.148437,0 -0.261719,-0.019531 -0.34375,-0.0625 C 5.617188,-7.335938 5.535156,-7.382812 5.453125,-7.4375 5.367188,-7.5 5.273438,-7.550781 5.171875,-7.59375 5.066406,-7.644531 4.929688,-7.671875 4.765625,-7.671875 c -0.117187,0 -0.273437,0.054687 -0.46875,0.15625 C 4.109375,-7.410156 3.925781,-7.269531 3.75,-7.09375 3.550781,-6.925781 3.382812,-6.726562 3.25,-6.5 3.125,-6.28125 3.0625,-6.054688 3.0625,-5.828125 V -2 c 0,0.292969 0.019531,0.53125 0.0625,0.71875 0.039062,0.1875 0.132812,0.335938 0.28125,0.4375 0.144531,0.09375 0.347656,0.164062 0.609375,0.203125 0.269531,0.03125 0.628906,0.046875 1.078125,0.046875 v 0.453125 C 4.8125,-0.148438 4.460938,-0.160156 4.046875,-0.171875 3.640625,-0.179688 3.222656,-0.1875 2.796875,-0.1875 c -0.4375,0 -0.867187,0.007812 -1.28125,0.015625 -0.40625,0.011719 -0.75,0.023437 -1.03125,0.03125 V -0.59375 c 0.613281,0 1.007813,-0.078125 1.1875,-0.234375 C 1.859375,-0.984375 1.953125,-1.375 1.953125,-2 v -4.25 c 0,-0.320312 -0.011719,-0.578125 -0.03125,-0.765625 C 1.898438,-7.210938 1.851562,-7.367188 1.78125,-7.484375 1.707031,-7.585938 1.597656,-7.65625 1.453125,-7.6875 1.304688,-7.726562 1.101562,-7.75 0.84375,-7.75 v -0.375 c 0.394531,-0.0625 0.75,-0.148438 1.0625,-0.265625 0.320312,-0.125 0.625,-0.316406 0.90625,-0.578125 H 3.140625 C 3.097656,-8.632812 3.070312,-8.289062 3.0625,-7.9375 c 0,0.34375 0,0.664062 0,0.953125 z m 0,0"
           id="path194" />
      </g>
    </g>
  </g>
  <g
     fill="#000000"
     fill-opacity="1"
     id="g208"
     transform="translate(-75.996078,-82.686701)">
    <g
       transform="translate(237.40091,147.69597)"
       id="g206">
      <g
         id="g204">
        <path
           d="m 5.921875,-4.5625 c -1.324219,0.398438 -2.320313,0.765625 -2.984375,1.109375 -0.65625,0.34375 -0.984375,0.78125 -0.984375,1.3125 0,0.5625 0.140625,0.945313 0.421875,1.140625 0.289062,0.199219 0.6875,0.296875 1.1875,0.296875 0.445312,0 0.875,-0.117187 1.28125,-0.359375 0.414062,-0.25 0.773438,-0.535156 1.078125,-0.859375 z m 2.734375,3.734375 c -0.261719,0.25 -0.542969,0.480469 -0.84375,0.6875 C 7.519531,0.0546875 7.222656,0.15625 6.921875,0.15625 6.628906,0.15625 6.394531,0.0234375 6.21875,-0.234375 6.039062,-0.503906 5.941406,-0.890625 5.921875,-1.390625 5.472656,-0.921875 4.976562,-0.546875 4.4375,-0.265625 3.894531,0.015625 3.328125,0.15625 2.734375,0.15625 c -0.542969,0 -1,-0.1757812 -1.375,-0.53125 -0.375,-0.351562 -0.554687,-0.800781 -0.53125,-1.34375 0.007813,-0.445312 0.144531,-0.828125 0.40625,-1.140625 C 1.492188,-3.179688 1.851562,-3.46875 2.3125,-3.71875 2.757812,-3.957031 3.289062,-4.175781 3.90625,-4.375 c 0.625,-0.207031 1.296875,-0.425781 2.015625,-0.65625 v -1.25 c 0,-0.53125 -0.125,-0.96875 -0.375,-1.3125 -0.242187,-0.34375 -0.71875,-0.515625 -1.4375,-0.515625 -0.511719,0 -0.964844,0.148437 -1.359375,0.4375 -0.386719,0.292969 -0.585938,0.652344 -0.59375,1.078125 0,0.292969 -0.058594,0.507812 -0.171875,0.640625 -0.117187,0.125 -0.257813,0.1875 -0.421875,0.1875 -0.148438,0 -0.261719,-0.054687 -0.34375,-0.171875 -0.074219,-0.125 -0.109375,-0.28125 -0.109375,-0.46875 0,-0.332031 0.148437,-0.648438 0.453125,-0.953125 0.3125,-0.300781 0.8125,-0.628906 1.5,-0.984375 0.394531,-0.21875 0.722656,-0.375 0.984375,-0.46875 0.257813,-0.101562 0.535156,-0.15625 0.828125,-0.15625 0.570312,0 1.070312,0.179688 1.5,0.53125 0.4375,0.34375 0.65625,0.851562 0.65625,1.515625 v 4.953125 c 0,0.679688 0.144531,1.0625 0.4375,1.15625 0.300781,0.09375 0.679688,-0.015625 1.140625,-0.328125 z m 0,0"
           id="path202" />
      </g>
    </g>
  </g>
  <g
     fill="#000000"
     fill-opacity="1"
     id="g216"
     transform="translate(-75.996078,-82.686701)">
    <g
       transform="translate(246.72111,147.69597)"
       id="g214">
      <g
         id="g212">
        <path
           d="m 3.140625,-8.96875 c -0.042969,0.335938 -0.070313,0.648438 -0.078125,0.9375 0,0.292969 0,0.492188 0,0.59375 0.175781,-0.15625 0.394531,-0.320312 0.65625,-0.5 0.257812,-0.1875 0.535156,-0.359375 0.828125,-0.515625 0.28125,-0.144531 0.566406,-0.269531 0.859375,-0.375 0.289062,-0.101563 0.566406,-0.15625 0.828125,-0.15625 0.476563,0 0.921875,0.121094 1.328125,0.359375 0.414062,0.230469 0.773438,0.539062 1.078125,0.921875 0.289063,0.386719 0.519531,0.828125 0.6875,1.328125 0.164063,0.492188 0.25,0.992188 0.25,1.5 0,0.679688 -0.117187,1.324219 -0.34375,1.9375 -0.230469,0.605469 -0.542969,1.136719 -0.9375,1.59375 C 7.878906,-0.875 7.390625,-0.503906 6.828125,-0.234375 6.273438,0.0234375 5.664062,0.15625 5,0.15625 4.757812,0.15625 4.460938,0.117188 4.109375,0.046875 3.765625,-0.015625 3.414062,-0.175781 3.0625,-0.4375 v 2.859375 c 0,0.269531 0.015625,0.492187 0.046875,0.671875 0.039063,0.1875 0.128906,0.332031 0.265625,0.4375 0.113281,0.101562 0.285156,0.179688 0.515625,0.234375 0.238281,0.050781 0.5625,0.078125 0.96875,0.078125 V 4.296875 C 4.640625,4.265625 4.320312,4.242188 3.90625,4.234375 c -0.417969,0 -0.855469,0 -1.3125,0 -0.449219,0 -0.882812,0 -1.296875,0 -0.40625,0.00781 -0.703125,0.03125 -0.890625,0.0625 V 3.84375 c 0.632812,0 1.050781,-0.09375 1.25,-0.28125 C 1.851562,3.382812 1.953125,3.019531 1.953125,2.46875 V -6.25 c 0,-0.320312 -0.011719,-0.578125 -0.03125,-0.765625 C 1.898438,-7.210938 1.851562,-7.367188 1.78125,-7.484375 1.707031,-7.585938 1.597656,-7.65625 1.453125,-7.6875 1.304688,-7.726562 1.101562,-7.75 0.84375,-7.75 v -0.375 c 0.394531,-0.0625 0.75,-0.148438 1.0625,-0.265625 0.320312,-0.125 0.625,-0.316406 0.90625,-0.578125 z m -0.078125,7.125 c 0.0625,0.117188 0.148438,0.257812 0.265625,0.421875 0.113281,0.167969 0.257813,0.328125 0.4375,0.484375 0.175781,0.148438 0.394531,0.273438 0.65625,0.375 0.257813,0.09375 0.570313,0.140625 0.9375,0.140625 0.519531,0 0.972656,-0.113281 1.359375,-0.34375 0.394531,-0.238281 0.722656,-0.539063 0.984375,-0.90625 0.257813,-0.375 0.453125,-0.78125 0.578125,-1.21875 0.125,-0.445313 0.1875,-0.890625 0.1875,-1.328125 0,-0.519531 -0.058594,-1.007812 -0.171875,-1.46875 C 8.179688,-6.15625 8.007812,-6.570312 7.78125,-6.9375 7.550781,-7.289062 7.253906,-7.566406 6.890625,-7.765625 c -0.355469,-0.207031 -0.773437,-0.3125 -1.25,-0.3125 -0.199219,0 -0.421875,0.046875 -0.671875,0.140625 -0.25,0.085938 -0.496094,0.1875 -0.734375,0.3125 -0.242187,0.136719 -0.46875,0.273438 -0.6875,0.40625 -0.210937,0.136719 -0.371094,0.261719 -0.484375,0.375 z m 0,0"
           id="path210" />
      </g>
    </g>
  </g>
  <g
     fill="#000000"
     fill-opacity="1"
     id="g224"
     transform="translate(-75.996078,-82.686701)">
    <g
       transform="translate(257.12715,147.69597)"
       id="g222">
      <g
         id="g220">
        <path
           d="M 4.28125,-0.71875 C 4.132812,-1.070312 3.929688,-1.5625 3.671875,-2.1875 3.421875,-2.820312 3.160156,-3.46875 2.890625,-4.125 2.617188,-4.789062 2.363281,-5.421875 2.125,-6.015625 1.894531,-6.609375 1.726562,-7.046875 1.625,-7.328125 1.519531,-7.628906 1.367188,-7.851562 1.171875,-8 0.984375,-8.15625 0.707031,-8.234375 0.34375,-8.234375 V -8.71875 c 0.175781,0.03125 0.4375,0.046875 0.78125,0.046875 0.34375,0 0.695312,0 1.0625,0 0.363281,0 0.703125,0 1.015625,0 0.320313,-0.00781 0.554687,-0.023437 0.703125,-0.046875 v 0.515625 C 3.4375,-8.179688 3.125,-8.09375 2.96875,-7.9375 2.8125,-7.789062 2.785156,-7.546875 2.890625,-7.203125 l 1.96875,5.046875 2.0625,-4.9375 C 7.066406,-7.46875 7.070312,-7.75 6.9375,-7.9375 6.800781,-8.125 6.535156,-8.21875 6.140625,-8.21875 v -0.5 c 0.144531,0.03125 0.347656,0.054688 0.609375,0.0625 0.269531,0 0.550781,0 0.84375,0 0.289062,0 0.5625,0 0.8125,0 0.25,-0.00781 0.441406,-0.03125 0.578125,-0.0625 v 0.5 c -0.429687,0 -0.742187,0.101562 -0.9375,0.296875 -0.1875,0.1875 -0.371094,0.511719 -0.546875,0.96875 L 3.09375,3.328125 C 2.9375,3.691406 2.722656,3.929688 2.453125,4.046875 c -0.273437,0.125 -0.554687,0.1875 -0.84375,0.1875 -0.210937,0 -0.40625,-0.0625 -0.59375,-0.1875 C 0.835938,3.929688 0.75,3.742188 0.75,3.484375 0.75,3.210938 0.84375,3.03125 1.03125,2.9375 1.226562,2.84375 1.414062,2.804688 1.59375,2.828125 1.644531,2.828125 1.695312,2.84375 1.75,2.875 1.8125,2.90625 1.875,2.9375 1.9375,2.96875 2,2.988281 2.054688,3.015625 2.109375,3.046875 c 0.0625,0.03125 0.117187,0.050781 0.171875,0.0625 0.101562,0 0.195312,-0.023437 0.28125,-0.0625 C 2.65625,3.003906 2.734375,2.925781 2.796875,2.8125 Z m 0,0"
           id="path218" />
      </g>
    </g>
  </g>
  <g
     id="g3402">
    <path
       fill="#5ba0bd"
       d="m 160.85158,7.996893 1.60546,-1.605469 7.03125,7.039063 -1.60156,1.601562 -7.03515,-7.035156"
       fill-opacity="1"
       fill-rule="nonzero"
       id="path226" />
    <g
       clip-path="url(#48286a91d8)"
       id="g230"
       transform="translate(-75.996078,-82.686701)">
      <path
         fill="#457bc2"
         d="m 230.125,93.09375 8.02734,-8.03125 c 1.10938,-1.113281 2.58985,-1.726562 4.16407,-1.726562 1.57421,0 3.05468,0.613281 4.16406,1.726562 1.11328,1.113281 1.72656,2.589844 1.72656,4.164062 0,1.574219 -0.61328,3.054688 -1.72656,4.164063 l -1.30078,1.308594 -1.60547,-1.605469 1.30469,-1.308594 c 0.68359,-0.679687 1.05859,-1.589844 1.05859,-2.558594 0,-0.964843 -0.375,-1.875 -1.05859,-2.5625 -0.6875,-0.683593 -1.59375,-1.058593 -2.5625,-1.058593 -0.96485,0 -1.875,0.375 -2.5625,1.058593 l -8.02735,8.03125 -1.60156,-1.601562"
         fill-opacity="1"
         fill-rule="nonzero"
         id="path228" />
    </g>
    <g
       clip-path="url(#bd8b5dafff)"
       id="g234"
       transform="translate(-75.996078,-82.686701)">
      <path
         fill="#0074ad"
         d="m 226.10156,93.390625 c -1.11328,-1.109375 -1.72265,-2.589844 -1.72265,-4.164063 0,-1.574218 0.60937,-3.050781 1.72265,-4.164062 1.11328,-1.113281 2.59375,-1.726562 4.16406,-1.726562 1.57422,0 3.05469,0.613281 4.16797,1.726562 l 1.30469,1.300781 -1.60547,1.609375 -1.30469,-1.308594 c -0.68359,-0.683593 -1.59375,-1.058593 -2.5625,-1.058593 -0.96484,0 -1.875,0.375 -2.55859,1.058593 -0.68359,0.683594 -1.05859,1.597657 -1.05859,2.5625 0,0.96875 0.375,1.878907 1.05859,2.558594 l 8.58594,8.589844 4.5664,-4.570312 1.60547,1.605468 -6.17187,6.175784 -10.19141,-10.195315"
         fill-opacity="1"
         fill-rule="nonzero"
         id="path232" />
    </g>
    <path
       fill="#5ba0bd"
       d="m 174.61329,22.871889 1.60547,1.60547 -7.03515,7.03516 -1.60157,-1.60547 7.03125,-7.03516"
       fill-opacity="1"
       fill-rule="nonzero"
       id="path236" />
    <g
       clip-path="url(#3ad1aa71b7)"
       id="g240"
       transform="translate(-75.996078,-82.686701)">
      <path
         fill="#457bc2"
         d="m 248.20703,98.835938 8.02734,8.027342 c 1.11329,1.11328 1.72657,2.59375 1.72657,4.16797 0,1.57422 -0.61328,3.05078 -1.72657,4.16016 -1.11328,1.11328 -2.58984,1.73047 -4.16406,1.73047 -1.57422,0 -3.05469,-0.61329 -4.16797,-1.73047 l -1.30078,-1.30078 1.60156,-1.60547 1.30469,1.30468 c 0.6836,0.6836 1.59375,1.0586 2.5625,1.0586 0.96875,0 1.875,-0.375 2.5586,-1.0586 0.68359,-0.68359 1.0625,-1.59375 1.0625,-2.55859 0,-0.96875 -0.37891,-1.87891 -1.0625,-2.5625 l -8.02735,-8.02734 1.60547,-1.605472"
         fill-opacity="1"
         fill-rule="nonzero"
         id="path238" />
    </g>
    <g
       clip-path="url(#f0d2d03e30)"
       id="g244"
       transform="translate(-75.996078,-82.686701)">
      <path
         fill="#0074ad"
         d="m 247.90234,94.816406 c 1.11328,-1.117187 2.59375,-1.726562 4.16797,-1.726562 1.57422,0 3.05078,0.609375 4.16406,1.726562 1.11329,1.113282 1.72657,2.589844 1.72657,4.160156 0,1.574218 -0.61328,3.054688 -1.72657,4.167968 l -1.30468,1.30469 -1.60157,-1.60547 1.30079,-1.30469 c 0.68359,-0.68359 1.0625,-1.589841 1.0625,-2.562498 0,-0.964843 -0.37891,-1.871093 -1.0625,-2.558593 -0.6836,-0.683594 -1.58985,-1.058594 -2.5625,-1.058594 -0.96485,0 -1.875,0.375 -2.5586,1.058594 l -8.58594,8.585941 4.57032,4.5664 -1.60547,1.60547 -6.17188,-6.17187 10.1875,-10.187504"
         fill-opacity="1"
         fill-rule="nonzero"
         id="path242" />
    </g>
    <path
       fill="#5ba0bd"
       d="m 159.73048,36.649239 -1.60547,1.60156 -7.03515,-7.03516 1.60547,-1.60156 7.03515,7.03516"
       fill-opacity="1"
       fill-rule="nonzero"
       id="path246" />
    <g
       clip-path="url(#f6ab4849af)"
       id="g250"
       transform="translate(-75.996078,-82.686701)">
      <path
         fill="#457bc2"
         d="m 242.44922,116.92578 -8.02735,8.03125 c -1.11328,1.10938 -2.58984,1.72656 -4.16406,1.72656 -1.57422,0 -3.05469,-0.61718 -4.16406,-1.72656 -1.11328,-1.11328 -1.72656,-2.58984 -1.72656,-4.16406 0,-1.57422 0.60937,-3.05469 1.72656,-4.16406 l 1.30078,-1.3086 1.60547,1.60547 -1.30469,1.3086 c -0.68359,0.67968 -1.05859,1.58984 -1.05859,2.55859 0,0.96484 0.375,1.875 1.05859,2.5625 0.6836,0.67969 1.59375,1.05859 2.5625,1.05859 0.96485,0 1.875,-0.3789 2.5586,-1.05859 l 8.03125,-8.03125 1.60156,1.60156"
         fill-opacity="1"
         fill-rule="nonzero"
         id="path248" />
    </g>
    <g
       clip-path="url(#1d09309e0e)"
       id="g254"
       transform="translate(-75.996078,-82.686701)">
      <path
         fill="#0074ad"
         d="m 246.47266,116.62891 c 1.10937,1.10937 1.72265,2.58593 1.72265,4.16406 0,1.57422 -0.61328,3.05078 -1.72265,4.16406 -1.11329,1.10938 -2.59375,1.72656 -4.16407,1.72656 -1.57422,0 -3.05468,-0.61718 -4.16797,-1.72656 l -1.30468,-1.30078 1.60547,-1.60937 1.30468,1.30859 c 0.6836,0.67969 1.59375,1.05859 2.5625,1.05859 0.96485,0 1.875,-0.3789 2.5586,-1.05859 0.68359,-0.6875 1.05859,-1.59766 1.05859,-2.5625 0,-0.96875 -0.375,-1.87891 -1.05859,-2.55859 l -8.58594,-8.58985 -4.56641,4.57031 -1.60547,-1.60937 6.17188,-6.17188 10.19141,10.19532"
         fill-opacity="1"
         fill-rule="nonzero"
         id="path252" />
    </g>
    <path
       fill="#5ba0bd"
       d="m 145.96876,21.774239 -1.60547,-1.60547 7.03516,-7.035158 1.60156,1.601563 -7.03125,7.039065"
       fill-opacity="1"
       fill-rule="nonzero"
       id="path256" />
    <g
       clip-path="url(#b2440ddaea)"
       id="g260"
       transform="translate(-75.996078,-82.686701)">
      <path
         fill="#457bc2"
         d="m 224.36719,111.18359 -8.02735,-8.02734 c -1.11328,-1.11328 -1.72656,-2.59375 -1.72656,-4.167969 0,-1.574219 0.61328,-3.050781 1.72656,-4.160156 1.11328,-1.113281 2.58985,-1.730469 4.16407,-1.730469 1.57421,0 3.05078,0.613282 4.16796,1.730469 l 1.30079,1.300781 -1.60157,1.605469 -1.30468,-1.304687 c -0.6836,-0.683594 -1.59375,-1.058594 -2.5625,-1.058594 -0.96875,0 -1.875,0.375 -2.5586,1.058594 -0.68359,0.683593 -1.0625,1.59375 -1.0625,2.558593 0,0.96875 0.37891,1.878909 1.0625,2.562499 l 8.02735,8.02735 -1.60547,1.60546"
         fill-opacity="1"
         fill-rule="nonzero"
         id="path258" />
    </g>
    <g
       clip-path="url(#35f92c2f90)"
       id="g264"
       transform="translate(-75.996078,-82.686701)">
      <path
         fill="#0074ad"
         d="m 224.67187,115.20313 c -1.11718,1.11718 -2.59375,1.72656 -4.16796,1.72656 -1.57422,0 -3.05079,-0.60938 -4.16407,-1.72656 -1.11328,-1.11329 -1.72656,-2.58985 -1.72656,-4.16016 0,-1.57422 0.61328,-3.05469 1.72656,-4.16797 l 1.30469,-1.30469 1.60156,1.60547 -1.30078,1.30078 c -0.68359,0.6875 -1.0625,1.59375 -1.0625,2.56641 0,0.96484 0.37891,1.87109 1.0625,2.55859 0.67969,0.6836 1.58985,1.0586 2.5586,1.0586 0.96875,0 1.8789,-0.375 2.5625,-1.0586 l 8.58593,-8.58593 -4.57031,-4.56641 1.60547,-1.60547 6.17187,6.17188 -10.1875,10.1875"
         fill-opacity="1"
         fill-rule="nonzero"
         id="path262" />
    </g>
  </g>
</svg>
